<svg xmlns="http://www.w3.org/2000/svg" width="26" height="26" viewBox="0 0 26 26"><defs><style>.a{fill:#fff;}</style></defs><path class="a" d="M20.583,0H5.417A5.417,5.417,0,0,0,0,5.417V20.583A5.417,5.417,0,0,0,5.417,26H20.583A5.417,5.417,0,0,0,26,20.583V5.417A5.417,5.417,0,0,0,20.583,0ZM8.667,20.583H5.417V8.667h3.25ZM7.042,7.293a1.911,1.911,0,1,1,1.9-1.911A1.9,1.9,0,0,1,7.042,7.293Zm14.625,13.29h-3.25V14.512c0-3.649-4.333-3.372-4.333,0v6.071h-3.25V8.667h3.25v1.912c1.512-2.8,7.583-3.008,7.583,2.682Z"/></svg>