<svg xmlns="http://www.w3.org/2000/svg" width="48.301" height="48.301" viewBox="0 0 48.301 48.301"><defs><style>.a{fill:#7a00d1;}</style></defs><path class="a" d="M24.15,0A24.15,24.15,0,1,0,48.3,24.15,24.15,24.15,0,0,0,24.15,0Zm0,46.743A22.592,22.592,0,1,1,46.743,24.15,22.592,22.592,0,0,1,24.15,46.743Z"/><path class="a" d="M137.247,156.317l-15.809,15.809-8.019-8.019a.779.779,0,0,0-1.1,1.1l8.569,8.569a.779.779,0,0,0,1.1,0l16.36-16.36a.779.779,0,0,0-1.1-1.1Z" transform="translate(-101.182 -140.898)"/></svg>